<?xml version="1.0" encoding="UTF-8" standalone="no"?>
<svg
   xmlns:dc="http://purl.org/dc/elements/1.1/"
   xmlns:cc="http://creativecommons.org/ns#"
   xmlns:rdf="http://www.w3.org/1999/02/22-rdf-syntax-ns#"
   xmlns:svg="http://www.w3.org/2000/svg"
   xmlns="http://www.w3.org/2000/svg"
   id="svg8"
   version="1.1"
   viewBox="0 0 67.733332 67.733335"
   height="256"
   width="256">
  <defs
     id="defs2" />
  <metadata
     id="metadata5">
    <rdf:RDF>
      <cc:Work
         rdf:about="">
        <dc:format>image/svg+xml</dc:format>
        <dc:type
           rdf:resource="http://purl.org/dc/dcmitype/StillImage" />
        <dc:title></dc:title>
      </cc:Work>
    </rdf:RDF>
  </metadata>
  <g
     transform="translate(0,-229.26665)"
     id="layer1">
    <path
       id="path4529"
       d="m 64.466414,267.42899 c -0.38714,-3.83791 -4.22361,-6.25478 -7.61087,-7.29978 -3.64921,-1.59963 -6.25641,2.97646 -3.29746,5.44079 2.36066,2.63059 6.22118,5.1189 9.82564,3.65421 0.64662,-0.35046 1.07631,-1.05898 1.08269,-1.79522 z m -12.79387,-12.79343 c -0.71058,-3.43457 -4.72762,-4.24543 -7.95709,-4.17813 -3.73849,0.50998 -5.03875,4.79372 -3.63091,7.69655 0.90255,2.68256 7.86683,4.89045 6.37902,0.31063 -3.12324,-4.70847 4.9025,-0.88866 5.20898,-3.82905 z m -2.5554,-9.46151 c -0.4551,-3.73482 -4.96828,-5.02075 -8.2021,-4.99012 -6.59718,0.0331 -13.62193,5.10467 -13.61684,12.12936 -0.26162,3.98609 2.57925,8.56783 6.87091,8.66658 3.9492,-1.29439 -0.12221,-5.54958 0.86667,-9.06515 1.83446,-3.99337 6.48776,-6.71553 10.87379,-5.63724 1.06697,0.0711 3.09497,0.48269 3.20757,-1.10343 z m -1.02111,-10.75042 c -1.43974,-3.49966 -5.75808,-3.7134 -9.01622,-3.89442 -7.41515,-0.40016 -15.99485,1.08701 -20.64789,7.48199 -4.45282,5.45213 -3.4609,13.23792 -1.15164,19.37979 0.75451,2.84747 4.20985,6.06426 7.12126,4.35571 0.73745,-3.38937 -2.33538,-6.93627 -1.88529,-10.63806 -0.60647,-6.35943 4.17824,-12.21699 10.18222,-13.83575 4.64126,-1.50436 9.55039,-0.93984 14.31599,-0.71145 0.93077,-0.15362 1.62005,-1.27491 1.08157,-2.13781 z"
       style="fill:#a7ee8e;fill-opacity:1;stroke-width:0.99999988" />
    <path
       id="path4529-0"
       d="m 0.46974204,257.515 c 0.387165,3.83789 4.22359296,6.2548 7.61085996,7.29978 3.64921,1.5996 6.256412,-2.97646 3.29747,-5.4408 -2.360668,-2.63059 -6.221182,-5.1189 -9.825649,-3.6542 -0.64661396,0.35046 -1.07630996,1.05898 -1.08268096,1.79522 z M 13.263594,270.30841 c 0.71059,3.43458 4.53862,4.76519 7.9571,4.17815 3.5495,-0.98245 5.03875,-4.79372 3.63091,-7.69655 -0.90253,-2.68257 -7.86683,-4.89045 -6.37902,-0.31064 3.12324,4.70848 -4.90246,0.88867 -5.20899,3.82904 z m 2.55541,9.46152 c 0.45509,3.73483 4.96828,5.02076 8.20211,4.99013 6.59717,-0.0331 13.62192,-5.10468 13.61683,-12.12936 0.26163,-3.9861 -2.57924,-8.56785 -6.8709,-8.66659 -3.94921,1.29439 0.50018,5.78583 -0.86667,9.06517 -1.83447,3.99336 -6.48778,6.7155 -10.8738,5.63722 -1.06697,-0.0711 -3.09498,-0.48269 -3.20757,1.10343 z m 1.02112,10.75042 c 1.43973,3.49965 5.75808,3.71341 9.01621,3.89443 7.41515,0.40015 15.99486,-1.087 20.64789,-7.48198 4.45278,-5.45215 3.46094,-13.23793 1.15166,-19.37981 -0.75453,-2.84747 -4.20985,-6.06426 -7.12129,-4.35573 -0.73742,3.38939 2.33538,6.93628 1.88531,10.63808 0.60648,6.35943 -4.17824,12.21699 -10.18222,13.83576 -4.64127,1.50434 -9.5504,0.93983 -14.31601,0.71144 -0.93077,0.15363 -1.62008,1.27492 -1.08155,2.13781 z"
       style="fill:#a7ee8e;fill-opacity:1;stroke-width:0.99999988" />
  </g>
</svg>
